<svg version="1.2" xmlns="http://www.w3.org/2000/svg" viewBox="0 0 512 512" width="512" height="512">
	<defs>
		<clipPath clipPathUnits="userSpaceOnUse" id="cp1">
			<path d="m115 65h196c27.61 0 50 22.39 50 50v35h-161c-27.61 0-50 22.39-50 50v161h-35c-27.61 0-50-22.39-50-50v-196c0-27.61 22.39-50 50-50z"/>
		</clipPath>
		<clipPath clipPathUnits="userSpaceOnUse" id="cp2">
			<path d="m396 446h-196c-27.61 0-50-22.39-50-50v-35h161c27.61 0 50-22.39 50-50v-161h35c27.61 0 50 22.39 50 50v196c0 27.61-22.39 50-50 50z"/>
		</clipPath>
	</defs>
	<style>
		.s0 { fill: #fefcf3 } 
		.s1 { fill: #f5ebe0 } 
		.s2 { fill: #f0dbdb } 
		.s3 { fill: #dba39a } 
	</style>
	<g id="Folder 5">
		<g clip-path="url(#cp1)">
			<path id="original copy" fill-rule="evenodd" class="s0" d="m115 65h196c27.61 0 50 22.39 50 50v35h-161c-27.61 0-50 22.39-50 50v161h-35c-27.61 0-50-22.39-50-50v-196c0-27.61 22.39-50 50-50z"/>
			<path id="original copy 2" fill-rule="evenodd" class="s1" d="m135 85h196c27.61 0 50 22.39 50 50v35h-161c-27.61 0-50 22.39-50 50v161h-35c-27.61 0-50-22.39-50-50v-196c0-27.61 22.39-50 50-50z"/>
			<path id="original copy 3" fill-rule="evenodd" class="s2" d="m155 105h196c27.61 0 50 22.39 50 50v35h-161c-27.61 0-50 22.39-50 50v161h-35c-27.61 0-50-22.39-50-50v-196c0-27.61 22.39-50 50-50z"/>
			<path id="original copy 4" fill-rule="evenodd" class="s3" d="m175 126h196c27.61 0 50 22.39 50 50v35h-161c-27.61 0-50 22.39-50 50v161h-35c-27.61 0-50-22.39-50-50v-196c0-27.61 22.39-50 50-50z"/>
		</g>
	</g>
	<g id="Folder 4">
		<g clip-path="url(#cp2)">
			<path id="original copy 5" fill-rule="evenodd" class="s0" d="m396 446h-196c-27.61 0-50-22.39-50-50v-35h161c27.61 0 50-22.39 50-50v-161h35c27.61 0 50 22.39 50 50v196c0 27.61-22.39 50-50 50z"/>
			<path id="original copy 6" fill-rule="evenodd" class="s1" d="m376 426h-196c-27.61 0-50-22.39-50-50v-35h161c27.61 0 50-22.39 50-50v-161h35c27.61 0 50 22.39 50 50v196c0 27.61-22.39 50-50 50z"/>
			<path id="original copy 7" fill-rule="evenodd" class="s2" d="m356 406h-196c-27.61 0-50-22.39-50-50v-35h161c27.61 0 50-22.39 50-50v-161h35c27.61 0 50 22.39 50 50v196c0 27.61-22.39 50-50 50z"/>
			<path id="original copy 8" fill-rule="evenodd" class="s3" d="m336 385h-196c-27.61 0-50-22.39-50-50v-35h161c27.61 0 50-22.39 50-50v-161h35c27.61 0 50 22.39 50 50v196c0 27.61-22.39 50-50 50z"/>
		</g>
	</g>
</svg>
