<svg version="1.2" xmlns="http://www.w3.org/2000/svg" viewBox="0 0 256 256" width="256" height="256">
	<style>
		.s0 { fill: #ffffff } 
	</style>
	<path id="IG" class="s0" aria-label="IG"  d="m49.6 233q-3 0-3-3v-204q0-3 3-3h15.3q3 0 3 3v204q0 3-3 3zm-8 0q-3 0-3-3v-204q0-3 3-3h15.3q3 0 3 3v204q0 3-3 3zm123.9 2.4q-23.1 0-36.9-13.5-13.8-13.8-13.8-36.6v-114.6q0-22.8 13.8-36.3 13.8-13.8 36.9-13.8 23.1 0 36.9 13.8 14.1 13.8 14.1 36.6v12.9q0 3-3 3h-15.3q-3 0-3-3v-13.5q0-14.1-8.1-22.5-8.1-8.7-21.6-8.7-13.2 0-21.6 8.7-8.1 8.7-8.1 22.5v115.2q0 13.8 8.1 22.5 8.4 8.7 21.6 8.7 13.5 0 21.6-8.4 8.1-8.7 8.1-22.8v-38.4q0-1.2-1.2-1.2h-25.8q-3 0-3-3v-12.6q0-3 3-3h45.3q3 0 3 3v54.9q0 22.8-14.1 36.6-13.8 13.5-36.9 13.5zm-8 0q-23.1 0-36.9-13.5-13.8-13.8-13.8-36.6v-114.6q0-22.8 13.8-36.3 13.8-13.8 36.9-13.8 23.1 0 36.9 13.8 14.1 13.8 14.1 36.6v12.9q0 3-3 3h-15.3q-3 0-3-3v-13.5q0-14.1-8.1-22.5-8.1-8.7-21.6-8.7-13.2 0-21.6 8.7-8.1 8.7-8.1 22.5v115.2q0 13.8 8.1 22.5 8.4 8.7 21.6 8.7 13.5 0 21.6-8.4 8.1-8.7 8.1-22.8v-38.4q0-1.2-1.2-1.2h-25.8q-3 0-3-3v-12.6q0-3 3-3h45.3q3 0 3 3v54.9q0 22.8-14.1 36.6-13.8 13.5-36.9 13.5z"/>
</svg>
