<svg version="1.2" xmlns="http://www.w3.org/2000/svg" viewBox="0 0 512 512" width="512" height="512">
	<defs>
		<clipPath clipPathUnits="userSpaceOnUse" id="cp1">
			<path d="m290.88 48.47l117.66 117.66c19.53 19.53 19.53 51.18 0 70.71l-18.74 18.74-98.92-98.93c-19.53-19.52-51.19-19.52-70.71 0l-98.93 98.93-18.74-18.74c-19.52-19.53-19.52-51.18 0-70.71l117.67-117.66c19.52-19.53 51.18-19.53 70.71 0z"/>
		</clipPath>
		<clipPath clipPathUnits="userSpaceOnUse" id="cp2">
			<path d="m220.17 462.69l-117.67-117.66c-19.52-19.53-19.52-51.19 0-70.71l18.74-18.74 98.93 98.92c19.52 19.53 51.18 19.53 70.71 0l98.92-98.92 18.74 18.74c19.53 19.52 19.53 51.18 0 70.71l-117.66 117.66c-19.53 19.53-51.19 19.53-70.71 0z"/>
		</clipPath>
	</defs>
	<style>
		.s0 { fill: #fefcf3 } 
		.s1 { fill: #f5ebe0 } 
		.s2 { fill: #f0dbdb } 
		.s3 { fill: #dba39a } 
	</style>
	<g id="Folder 5 copy">
		<g clip-path="url(#cp1)">
			<path id="original copy" fill-rule="evenodd" class="s0" d="m290.88 48.47l117.66 117.66c19.53 19.53 19.53 51.18 0 70.71l-18.74 18.74-98.92-98.93c-19.53-19.52-51.19-19.52-70.71 0l-98.93 98.93-18.74-18.74c-19.52-19.53-19.52-51.18 0-70.71l117.67-117.66c19.52-19.53 51.18-19.53 70.71 0z"/>
			<path id="original copy 2" fill-rule="evenodd" class="s1" d="m290.88 73.92l117.66 117.67c19.53 19.52 19.53 51.18 0 70.71l-18.74 18.73-98.92-98.92c-19.53-19.53-51.19-19.53-70.71 0l-98.93 98.92-18.74-18.73c-19.52-19.53-19.52-51.19 0-70.71l117.67-117.67c19.52-19.52 51.18-19.52 70.71 0z"/>
			<path id="original copy 3" fill-rule="evenodd" class="s2" d="m389.8 306.49l-98.92-98.92c-19.53-19.53-51.19-19.53-70.71 0l-98.93 98.92-18.74-18.74c-19.52-19.52-19.52-51.18 0-70.71l117.67-117.66c19.52-19.53 51.18-19.53 70.71 0l117.66 117.66c19.53 19.53 19.53 51.19 0 70.71z"/>
			<path id="original copy 4" fill-rule="evenodd" class="s3" d="m290.24 125.47l117.66 117.66c19.53 19.53 19.53 51.19 0 70.71l-18.73 18.74-98.93-98.92c-19.52-19.53-51.18-19.53-70.71 0l-98.92 98.92-18.74-18.74c-19.53-19.52-19.53-51.18 0-70.71l117.66-117.66c19.53-19.52 51.19-19.52 70.71 0z"/>
		</g>
	</g>
	<g id="Folder 4 copy">
		<g clip-path="url(#cp2)">
			<path id="original copy 5" fill-rule="evenodd" class="s0" d="m220.17 462.69l-117.67-117.66c-19.52-19.53-19.52-51.19 0-70.71l18.74-18.74 98.93 98.92c19.52 19.53 51.18 19.53 70.71 0l98.92-98.92 18.74 18.74c19.53 19.52 19.53 51.18 0 70.71l-117.66 117.66c-19.53 19.53-51.19 19.53-70.71 0z"/>
			<path id="original copy 6" fill-rule="evenodd" class="s1" d="m220.17 437.23l-117.67-117.66c-19.52-19.52-19.52-51.18 0-70.71l18.74-18.74 98.93 98.93c19.52 19.52 51.18 19.52 70.71 0l98.92-98.93 18.74 18.74c19.53 19.53 19.53 51.19 0 70.71l-117.66 117.66c-19.53 19.53-51.19 19.53-70.71 0z"/>
			<path id="original copy 7" fill-rule="evenodd" class="s2" d="m121.24 204.67l98.93 98.92c19.52 19.53 51.18 19.53 70.71 0l98.92-98.92 18.74 18.74c19.53 19.52 19.53 51.18 0 70.71l-117.66 117.66c-19.53 19.53-51.19 19.53-70.71 0l-117.67-117.66c-19.52-19.53-19.52-51.19 0-70.71z"/>
			<path id="original copy 8" fill-rule="evenodd" class="s3" d="m220.8 385.69l-117.66-117.67c-19.53-19.52-19.53-51.18 0-70.71l18.74-18.73 98.92 98.92c19.53 19.53 51.19 19.53 70.71 0l98.93-98.92 18.74 18.73c19.52 19.53 19.52 51.19 0 70.71l-117.67 117.67c-19.52 19.52-51.18 19.52-70.71 0z"/>
		</g>
	</g>
</svg>
